<svg xmlns="http://www.w3.org/2000/svg" width="380.586" height="62.586" viewBox="0 0 380.586 62.586">
  <g id="Grupo_5362" data-name="Grupo 5362" transform="translate(-238.207 -702.207)">
    <g id="Grupo_4167" data-name="Grupo 4167" transform="translate(-209.139 657)">
      <path id="Trazado_142" data-name="Trazado 142" d="M450.985,723.409c1.407.061,3.216.125,3.684,2.723a9.957,9.957,0,0,1-2.787,8.5,4.9,4.9,0,0,1-3.253,1.065h-2.76l2.392-12.285Zm-13.4,17.547h9.535a20.438,20.438,0,0,0,6.238-.619c4.911-1.523,7.617-6.094,8.549-10.924.627-3.253.466-6.523-1.479-8.729-2.2-2.527-5.5-2.562-10.611-2.626h-7.787l-4.445,22.9Z" transform="translate(167.967 -651.432)" fill="#fff" fill-rule="evenodd"/>
      <path id="Trazado_143" data-name="Trazado 143" d="M481.941,740.956h19.1l.968-4.965H490.168l.887-4.544H501.2l.968-4.956H492.015l.662-3.4h10.87l.968-5.028H486.395l-4.453,22.9Z" transform="translate(147.675 -651.432)" fill="#fff" fill-rule="evenodd"/>
      <path id="Trazado_144" data-name="Trazado 144" d="M535.669,722.831c.9.063,2.985.188,2.456,2.877a3.441,3.441,0,0,1-2.295,2.8,5.706,5.706,0,0,1-1.228.161h-4.149l1.13-5.834ZM520.81,740.925h7.259l1.452-7.466H535.1c2.509-.062,4.632-.161,6.936-2.133a9.8,9.8,0,0,0,3.307-5.843,6.58,6.58,0,0,0-.878-5.35c-1.479-1.918-3.621-2.043-6.1-2.143h-13.1l-4.445,22.934Z" transform="translate(129.892 -651.401)" fill="#fff" fill-rule="evenodd"/>
      <path id="Trazado_145" data-name="Trazado 145" d="M579.655,722.277a3.685,3.685,0,0,1,3.908,3.28,8.561,8.561,0,0,1-.161,3.01c-.842,4.313-3.334,6.615-6.246,6.615-3.442,0-4.6-2.4-3.818-6.39.923-4.732,3.737-6.515,6.318-6.515Zm1.129-5.771c-8.272,0-13.442,5.771-14.715,12.322-1.022,5.224.449,12.161,9.822,12.161,8.989,0,13.676-6.622,14.8-12.422,1.057-5.449-.861-12.061-9.912-12.061Z" transform="translate(109.314 -650.722)" fill="#fff" fill-rule="evenodd"/>
      <path id="Trazado_146" data-name="Trazado 146" d="M624.614,722.795c1.265,0,3.523.064,3.021,2.689-.511,2.6-2.832,2.662-4.024,2.662h-3.02l1.04-5.35Zm-13.773,18.131h7.276l1.56-8.075h2.151l2.869,8.075h8.047l-3.783-9.249a9.142,9.142,0,0,0,3.281-1.748,7.857,7.857,0,0,0,2.652-4.606c.43-2.2.125-5.314-2.67-6.614a14.815,14.815,0,0,0-5.5-.718H615.3l-4.462,22.934Z" transform="translate(88.704 -651.401)" fill="#fff" fill-rule="evenodd"/>
      <path id="Trazado_147" data-name="Trazado 147" d="M657.49,723.665H663.3l-3.352,17.26h7.224l3.352-17.26h5.807l1.111-5.674H658.593l-1.1,5.674Z" transform="translate(67.362 -651.401)" fill="#fff" fill-rule="evenodd"/>
      <path id="Trazado_148" data-name="Trazado 148" d="M690.134,740.956h7.276l4.445-22.9h-7.277l-4.444,22.9Z" transform="translate(52.427 -651.432)" fill="#fff" fill-rule="evenodd"/>
      <path id="Trazado_149" data-name="Trazado 149" d="M717.822,740.956h7.546l12.206-22.9h-7.437l-4.786,9.822a44.2,44.2,0,0,0-2.241,5.35,32.053,32.053,0,0,0-.142-6.093L722,718.058h-7.385l3.208,22.9Z" transform="translate(41.228 -651.432)" fill="#fff" fill-rule="evenodd"/>
      <path id="Trazado_150" data-name="Trazado 150" d="M764.308,722.277a3.69,3.69,0,0,1,3.907,3.28,8.758,8.758,0,0,1-.161,3.01c-.842,4.313-3.334,6.615-6.255,6.615-3.424,0-4.588-2.4-3.817-6.39.932-4.732,3.745-6.515,6.327-6.515Zm1.128-5.771c-8.28,0-13.442,5.771-14.714,12.322-1.022,5.224.448,12.161,9.822,12.161,8.979,0,13.675-6.622,14.8-12.422,1.057-5.449-.861-12.061-9.912-12.061Z" transform="translate(24.836 -650.722)" fill="#fff" fill-rule="evenodd"/>
      <path id="Trazado_151" data-name="Trazado 151" d="M190.74,740.869H198l2.892-14.856c.262-1.372.3-1.748.5-3.254.086,2.535.114,2.569.248,4.522l1.092,13.589h5.684l6.789-14.346c.819-1.744.958-2.087,1.72-3.9-.539,2.053-.658,2.5-1.039,4.279l-2.715,13.965h7.29l4.7-24.165H214.2l-4.756,10.372a63.037,63.037,0,0,0-2.282,5.918c.081-2.186.086-2.734.005-5.131l-.811-11.158H195.438l-4.7,24.165Z" transform="translate(280.899 -650.812)" fill="#ffe400" fill-rule="evenodd"/>
      <path id="Trazado_152" data-name="Trazado 152" d="M252.19,731.078c-.429,2.535-.915,5.236,1.029,7.566,1.449,1.711,4.3,2.878,7.861,2.878a14.17,14.17,0,0,0,8.844-2.878c3.363-2.7,4.063-6.3,4.6-9.071l2.506-12.869h-7.71l-2.93,15.094a4.489,4.489,0,0,1-1.5,2.945,4.193,4.193,0,0,1-2.6.852,2.755,2.755,0,0,1-2.258-.885,3.3,3.3,0,0,1-.324-2.911l2.935-15.094h-7.67l-2.793,14.374Z" transform="translate(252.962 -650.812)" fill="#ffe400" fill-rule="evenodd"/>
      <path id="Trazado_153" data-name="Trazado 153" d="M293.2,740.869h7.119l1.905-9.791c.391-2.191.467-2.735.72-4.927a52.16,52.16,0,0,0,2.116,6.365l3.272,8.352h8.215l4.7-24.165h-7.156l-1.84,9.481c-.457,2.7-.524,3.216-.781,5.579-.706-2.706-.944-3.422-1.792-5.922l-3.669-9.138H297.9l-4.7,24.165Z" transform="translate(234.024 -650.812)" fill="#ffe400" fill-rule="evenodd"/>
      <path id="Trazado_154" data-name="Trazado 154" d="M353.7,722.349c1.486.071,3.392.138,3.888,2.874a9.454,9.454,0,0,1-.076,3.564,9.275,9.275,0,0,1-2.868,5.408,5.17,5.17,0,0,1-3.43,1.13H348.3l2.525-12.975Zm-14.151,18.52h10.073a21.919,21.919,0,0,0,6.594-.647c5.174-1.616,8.024-6.438,9.015-11.54.667-3.421.486-6.88-1.562-9.209-2.325-2.669-5.8-2.7-11.2-2.768h-8.224l-4.7,24.165Z" transform="translate(212.817 -650.812)" fill="#ffe400" fill-rule="evenodd"/>
      <path id="Trazado_155" data-name="Trazado 155" d="M403.335,721.15a3.9,3.9,0,0,1,4.127,3.458,9.262,9.262,0,0,1-.182,3.188c-.887,4.55-3.506,6.979-6.594,6.979-3.631,0-4.85-2.529-4.03-6.741.972-5,3.945-6.885,6.679-6.885Zm1.182-6.09c-8.729,0-14.189,6.09-15.533,13.008-1.068,5.513.486,12.836,10.378,12.836,9.481,0,14.437-6.985,15.628-13.107,1.115-5.755-.915-12.736-10.473-12.736Z" transform="translate(190.335 -650.06)" fill="#ffe400" fill-rule="evenodd"/>
    </g>
    <line id="Línea_805" data-name="Línea 805" x1="9" y2="51" transform="translate(244 708)" fill="none" stroke="#cf0013" stroke-linecap="square" stroke-width="10"/>
    <line id="Línea_982" data-name="Línea 982" x1="9" y2="51" transform="translate(604 708)" fill="none" stroke="#cf0013" stroke-linecap="square" stroke-width="10"/>
  </g>
</svg>
